
        <svg xmlns="http://www.w3.org/2000/svg" xmlns:xlink="http://www.w3.org/1999/xlink" version="1.1" width="3187.5" 
        height="1110.4531401594359" viewBox="0 0 3187.5 1110.4531401594359">
			
			<g transform="scale(9.375) translate(10, 10)">
				<defs id="SvgjsDefs10670"></defs><g id="SvgjsG10671" featureKey="JQyOZB-0" transform="matrix(33.01419822479292,0,0,33.01419822479292,-32.51898572369292,-33.31132415121328)" fill="#070875"><g xmlns="http://www.w3.org/2000/svg"><g><polygon fill="#070875" points="2.179,1.009 0.989,2.171 1.872,3.302 2.465,3.292 3.062,2.759 2.767,2.428 2.292,2.852     2.085,2.856 1.583,2.211 2.358,1.453 3.225,1.453 4.014,2.49 4.014,1.759 3.443,1.009   "></polygon></g><g><polygon fill="#070875" points="2.544,1.708 1.947,2.242 2.242,2.571 2.717,2.148 2.923,2.145 3.426,2.79 2.649,3.547     1.784,3.547 0.985,2.499 0.985,3.23 1.565,3.991 2.83,3.991 4.014,2.833 4.014,2.824 3.137,1.697   "></polygon></g></g></g><g id="SvgjsG10672" featureKey="SbCDzn-0" transform="matrix(1.7621145374449338,0,0,1.7621145374449338,119.64757616824515,22.744494770066854)" fill="#083159"><path d="M10.88 20 q-0.22 -0.72 -0.49 -1.48 t-0.53 -1.52 l-5.4 0 q-0.26 0.76 -0.53 1.52 t-0.49 1.48 l-3.24 0 q0.78 -2.24 1.48 -4.14 t1.37 -3.58 t1.32 -3.19 t1.35 -2.95 l2.98 0 q0.68 1.44 1.34 2.95 t1.33 3.19 t1.37 3.58 t1.48 4.14 l-3.34 0 z M7.14 9.28 q-0.1 0.3 -0.3 0.82 t-0.46 1.2 t-0.57 1.5 t-0.63 1.72 l3.94 0 q-0.32 -0.9 -0.62 -1.72 t-0.57 -1.5 t-0.47 -1.2 t-0.32 -0.82 z M18.64 13.059999999999999 q0 1.02 0.25 1.84 t0.72 1.41 t1.15 0.91 t1.56 0.32 q0.86 0 1.55 -0.32 t1.16 -0.91 t0.72 -1.41 t0.25 -1.84 t-0.25 -1.85 t-0.72 -1.42 t-1.16 -0.91 t-1.55 -0.32 q-0.88 0 -1.56 0.33 t-1.15 0.92 t-0.72 1.42 t-0.25 1.83 z M29.22 13.059999999999999 q0 1.46 -0.36 2.63 t-1.01 2.05 t-1.55 1.46 t-1.98 0.84 q0.1 0.4 0.44 0.65 t0.86 0.41 t1.21 0.24 t1.49 0.14 l-0.64 2.28 q-1.56 -0.06 -2.67 -0.31 t-1.88 -0.69 t-1.22 -1.08 t-0.69 -1.48 q-1.24 -0.16 -2.3 -0.69 t-1.84 -1.43 t-1.22 -2.16 t-0.44 -2.86 q0 -1.78 0.56 -3.13 t1.51 -2.27 t2.2 -1.38 t2.63 -0.46 q1.42 0 2.68 0.46 t2.2 1.38 t1.48 2.27 t0.54 3.13 z M37.239999999999995 20.28 q-1.46 0 -2.52 -0.41 t-1.75 -1.14 t-1.02 -1.74 t-0.33 -2.23 l0 -8.62 l3.12 0 l0 8.36 q0 0.84 0.19 1.43 t0.52 0.96 t0.8 0.53 t1.03 0.16 q1.14 0 1.85 -0.7 t0.71 -2.38 l0 -8.36 l3.12 0 l0 8.62 q0 1.22 -0.34 2.24 t-1.04 1.75 t-1.78 1.13 t-2.56 0.4 z M55.24 20 q-0.22 -0.72 -0.49 -1.48 t-0.53 -1.52 l-5.4 0 q-0.26 0.76 -0.53 1.52 t-0.49 1.48 l-3.24 0 q0.78 -2.24 1.48 -4.14 t1.37 -3.58 t1.32 -3.19 t1.35 -2.95 l2.98 0 q0.68 1.44 1.34 2.95 t1.33 3.19 t1.37 3.58 t1.48 4.14 l-3.34 0 z M51.5 9.28 q-0.1 0.3 -0.3 0.82 t-0.46 1.2 t-0.57 1.5 t-0.63 1.72 l3.94 0 q-0.32 -0.9 -0.62 -1.72 t-0.57 -1.5 t-0.47 -1.2 t-0.32 -0.82 z M66.7 20.28 q-3.38 0 -5.15 -1.88 t-1.77 -5.34 q0 -1.72 0.54 -3.07 t1.48 -2.28 t2.24 -1.41 t2.82 -0.48 q0.88 0 1.6 0.13 t1.26 0.3 t0.9 0.35 t0.52 0.28 l-0.9 2.52 q-0.64 -0.34 -1.49 -0.58 t-1.93 -0.24 q-0.72 0 -1.41 0.24 t-1.22 0.77 t-0.85 1.37 t-0.32 2.04 q0 0.96 0.21 1.79 t0.68 1.43 t1.23 0.95 t1.84 0.35 q0.68 0 1.22 -0.08 t0.96 -0.19 t0.74 -0.25 t0.58 -0.26 l0.86 2.5 q-0.66 0.4 -1.86 0.72 t-2.78 0.32 z M75.96000000000001 13.059999999999999 q0 1.02 0.25 1.84 t0.72 1.41 t1.15 0.91 t1.56 0.32 q0.86 0 1.55 -0.32 t1.16 -0.91 t0.72 -1.41 t0.25 -1.84 t-0.25 -1.85 t-0.72 -1.42 t-1.16 -0.91 t-1.55 -0.32 q-0.88 0 -1.56 0.33 t-1.15 0.92 t-0.72 1.42 t-0.25 1.83 z M86.54 13.059999999999999 q0 1.78 -0.53 3.13 t-1.45 2.26 t-2.19 1.37 t-2.73 0.46 q-1.42 0 -2.68 -0.46 t-2.2 -1.37 t-1.48 -2.26 t-0.54 -3.13 t0.56 -3.13 t1.51 -2.27 t2.2 -1.38 t2.63 -0.46 q1.42 0 2.68 0.46 t2.2 1.38 t1.48 2.27 t0.54 3.13 z M92.26 17.46 q0.22 0.02 0.51 0.03 t0.69 0.01 q2.34 0 3.47 -1.18 t1.13 -3.26 q0 -2.18 -1.08 -3.3 t-3.42 -1.12 q-0.32 0 -0.66 0.01 t-0.64 0.05 l0 8.76 z M101.28 13.059999999999999 q0 1.8 -0.56 3.14 t-1.59 2.22 t-2.51 1.32 t-3.32 0.44 q-0.84 0 -1.96 -0.07 t-2.2 -0.29 l0 -13.5 q1.08 -0.2 2.25 -0.27 t2.01 -0.07 q1.78 0 3.23 0.4 t2.49 1.26 t1.6 2.2 t0.56 3.22 z M103.88 20 l0 -13.86 l9.36 0 l0 2.62 l-6.24 0 l0 2.72 l5.54 0 l0 2.56 l-5.54 0 l0 3.34 l6.7 0 l0 2.62 l-9.82 0 z"></path></g>
			</g>
		</svg>
	